<svg width="114" height="114" viewBox="0 0 114 114" fill="none" xmlns="http://www.w3.org/2000/svg">
<path d="M107.16 58.1875C107.16 54.4825 106.828 50.92 106.21 47.5H57V67.735H85.12C83.885 74.2425 80.18 79.7525 74.6225 83.4575V96.615H91.58C101.46 87.495 107.16 74.1 107.16 58.1875Z" fill="#F7F7F7"/>
<path d="M57 109.25C71.1075 109.25 82.935 104.595 91.58 96.615L74.6225 83.4575C69.9675 86.5925 64.03 88.4925 57 88.4925C43.415 88.4925 31.8725 79.325 27.74 66.975H10.355V80.465C18.9525 97.5175 36.575 109.25 57 109.25Z" fill="white"/>
<path d="M27.74 66.9275C26.695 63.7925 26.0775 60.4675 26.0775 57C26.0775 53.5325 26.695 50.2075 27.74 47.0725V33.5825H10.355C6.7925 40.6125 4.75 48.545 4.75 57C4.75 65.455 6.7925 73.3875 10.355 80.4175L23.8925 69.8725L27.74 66.9275Z" fill="#F7F7F7"/>
<path d="M57 25.555C64.695 25.555 71.535 28.215 76.9975 33.345L91.96 18.3825C82.8875 9.9275 71.1075 4.75 57 4.75C36.575 4.75 18.9525 16.4825 10.355 33.5825L27.74 47.0725C31.8725 34.7225 43.415 25.555 57 25.555Z" fill="white"/>
</svg>
