<svg width="583" height="30" viewBox="0 0 583 30" fill="none" xmlns="http://www.w3.org/2000/svg">
<path d="M10 15H258" stroke="#999999" stroke-linecap="round"/>
<path d="M287.62 22.24C286.873 22.24 286.2 22.1133 285.6 21.86C285.013 21.6067 284.507 21.24 284.08 20.76C283.667 20.28 283.347 19.7067 283.12 19.04C282.893 18.36 282.78 17.6 282.78 16.76C282.78 15.92 282.893 15.1667 283.12 14.5C283.347 13.8333 283.667 13.2667 284.08 12.8C284.507 12.32 285.013 11.9533 285.6 11.7C286.2 11.4467 286.873 11.32 287.62 11.32C288.367 11.32 289.04 11.4467 289.64 11.7C290.24 11.9533 290.747 12.32 291.16 12.8C291.587 13.2667 291.913 13.8333 292.14 14.5C292.367 15.1667 292.48 15.92 292.48 16.76C292.48 17.6 292.367 18.36 292.14 19.04C291.913 19.7067 291.587 20.28 291.16 20.76C290.747 21.24 290.24 21.6067 289.64 21.86C289.04 22.1133 288.367 22.24 287.62 22.24ZM287.62 20.18C288.3 20.18 288.833 19.9733 289.22 19.56C289.607 19.1467 289.8 18.54 289.8 17.74V15.8C289.8 15.0133 289.607 14.4133 289.22 14C288.833 13.5867 288.3 13.38 287.62 13.38C286.953 13.38 286.427 13.5867 286.04 14C285.653 14.4133 285.46 15.0133 285.46 15.8V17.74C285.46 18.54 285.653 19.1467 286.04 19.56C286.427 19.9733 286.953 20.18 287.62 20.18ZM293.95 22V11.56H296.51V13.72H296.61C296.676 13.44 296.776 13.1733 296.91 12.92C297.056 12.6533 297.243 12.42 297.47 12.22C297.696 12.02 297.963 11.86 298.27 11.74C298.59 11.62 298.956 11.56 299.37 11.56H299.93V13.98H299.13C298.263 13.98 297.61 14.1067 297.17 14.36C296.73 14.6133 296.51 15.0267 296.51 15.6V22H293.95Z" fill="black" fill-opacity="0.6"/>
<path d="M325 15H573" stroke="#999999" stroke-linecap="round"/>
</svg>
